<svg width="32" height="32" viewBox="0 0 32 32" fill="none" xmlns="http://www.w3.org/2000/svg">
<path d="M15.9054 9.6133C12.4994 9.6133 9.75208 12.3606 9.75208 15.7666C9.75208 19.1726 12.4994 21.9199 15.9054 21.9199C19.3114 21.9199 22.0587 19.1726 22.0587 15.7666C22.0587 12.3606 19.3114 9.6133 15.9054 9.6133ZM15.9054 19.767C13.7043 19.767 11.9049 17.973 11.9049 15.7666C11.9049 13.5602 13.699 11.7662 15.9054 11.7662C18.1118 11.7662 19.9058 13.5602 19.9058 15.7666C19.9058 17.973 18.1064 19.767 15.9054 19.767ZM23.7456 9.3616C23.7456 10.1596 23.103 10.7968 22.3104 10.7968C21.5124 10.7968 20.8751 10.1542 20.8751 9.3616C20.8751 8.56901 21.5178 7.92637 22.3104 7.92637C23.103 7.92637 23.7456 8.56901 23.7456 9.3616ZM27.821 10.8183C27.73 8.89569 27.2909 7.19269 25.8824 5.78958C24.4793 4.38648 22.7763 3.94734 20.8537 3.85095C18.8722 3.73849 12.9332 3.73849 10.9517 3.85095C9.03447 3.94199 7.33147 4.38113 5.92301 5.78423C4.51455 7.18733 4.08077 8.89033 3.98437 10.8129C3.87191 12.7944 3.87191 18.7335 3.98437 20.7149C4.07541 22.6375 4.51455 24.3405 5.92301 25.7436C7.33147 27.1467 9.02911 27.5859 10.9517 27.6823C12.9332 27.7947 18.8722 27.7947 20.8537 27.6823C22.7763 27.5912 24.4793 27.1521 25.8824 25.7436C27.2855 24.3405 27.7246 22.6375 27.821 20.7149C27.9335 18.7335 27.9335 12.7997 27.821 10.8183ZM25.2612 22.841C24.8435 23.8907 24.0348 24.6993 22.9798 25.1224C21.4 25.749 17.6512 25.6044 15.9054 25.6044C14.1595 25.6044 10.4054 25.7436 8.83096 25.1224C7.78131 24.7047 6.97266 23.896 6.54958 22.841C5.92301 21.2612 6.0676 17.5124 6.0676 15.7666C6.0676 14.0208 5.92836 10.2667 6.54958 8.69218C6.9673 7.64254 7.77596 6.83388 8.83096 6.41081C10.4108 5.78423 14.1595 5.92882 15.9054 5.92882C17.6512 5.92882 21.4053 5.78958 22.9798 6.41081C24.0294 6.82852 24.8381 7.63718 25.2612 8.69218C25.8878 10.272 25.7432 14.0208 25.7432 15.7666C25.7432 17.5124 25.8878 21.2665 25.2612 22.841Z" fill="#212429"/>
</svg>
