<svg width="32" height="32" viewBox="0 0 32 32" fill="none" xmlns="http://www.w3.org/2000/svg">
<path d="M10.1086 26.6664H5.68575V12.4235H10.1086V26.6664ZM7.8948 10.4806C6.48052 10.4806 5.33337 9.30921 5.33337 7.89492C5.33337 7.21559 5.60324 6.56408 6.0836 6.08372C6.56396 5.60336 7.21547 5.3335 7.8948 5.3335C8.57414 5.3335 9.22564 5.60336 9.70601 6.08372C10.1864 6.56408 10.4562 7.21559 10.4562 7.89492C10.4562 9.30921 9.30861 10.4806 7.8948 10.4806ZM26.6619 26.6664H22.2486V19.733C22.2486 18.0806 22.2153 15.9616 19.9491 15.9616C17.6496 15.9616 17.2972 17.7568 17.2972 19.614V26.6664H12.8791V12.4235H17.121V14.3664H17.1829C17.7734 13.2473 19.2158 12.0664 21.3677 12.0664C25.8438 12.0664 26.6667 15.014 26.6667 18.8425V26.6664H26.6619Z" fill="#212429"/>
</svg>
