<svg width="32" height="32" viewBox="0 0 32 32" fill="none" xmlns="http://www.w3.org/2000/svg">
<path d="M28.7761 9.60024C28.4694 8.44546 27.5658 7.53599 26.4185 7.22734C24.3389 6.6665 16 6.6665 16 6.6665C16 6.6665 7.6611 6.6665 5.58147 7.22734C4.43415 7.53603 3.53054 8.44546 3.22385 9.60024C2.66663 11.6934 2.66663 16.0604 2.66663 16.0604C2.66663 16.0604 2.66663 20.4275 3.22385 22.5206C3.53054 23.6754 4.43415 24.547 5.58147 24.8556C7.6611 25.4165 16 25.4165 16 25.4165C16 25.4165 24.3388 25.4165 26.4185 24.8556C27.5658 24.547 28.4694 23.6754 28.7761 22.5206C29.3333 20.4275 29.3333 16.0604 29.3333 16.0604C29.3333 16.0604 29.3333 11.6934 28.7761 9.60024ZM13.2727 20.0254V12.0955L20.2423 16.0605L13.2727 20.0254Z" fill="#212429"/>
</svg>
